<svg width="23" height="21" viewBox="0 0 23 21" fill="none" xmlns="http://www.w3.org/2000/svg">
<path d="M4.12825 17.5L1.79258 19.8354C1.46067 20.1675 1.07888 20.2427 0.647208 20.0611C0.215736 19.8793 0 19.5521 0 19.0794V2.10904C0 1.51968 0.204167 1.02083 0.6125 0.6125C1.02083 0.204167 1.51968 0 2.10904 0H20.0576C20.647 0 21.1458 0.204167 21.5542 0.6125C21.9625 1.02083 22.1667 1.51968 22.1667 2.10904V15.391C22.1667 15.9803 21.9625 16.4792 21.5542 16.8875C21.1458 17.2958 20.647 17.5 20.0576 17.5H4.12825ZM3.38333 15.75H20.0576C20.1475 15.75 20.2297 15.7126 20.3044 15.6377C20.3792 15.563 20.4167 15.4808 20.4167 15.391V2.10904C20.4167 2.01921 20.3792 1.93696 20.3044 1.86229C20.2297 1.78743 20.1475 1.75 20.0576 1.75H2.10904C2.01921 1.75 1.93696 1.78743 1.86229 1.86229C1.78743 1.93696 1.75 2.01921 1.75 2.10904V17.3655L3.38333 15.75ZM6.41667 9.78192C6.70231 9.78192 6.94575 9.68139 7.147 9.48033C7.34806 9.27908 7.44858 9.03564 7.44858 8.75C7.44858 8.46436 7.34806 8.22092 7.147 8.01967C6.94575 7.81861 6.70231 7.71808 6.41667 7.71808C6.13103 7.71808 5.88758 7.81861 5.68633 8.01967C5.48528 8.22092 5.38475 8.46436 5.38475 8.75C5.38475 9.03564 5.48528 9.27908 5.68633 9.48033C5.88758 9.68139 6.13103 9.78192 6.41667 9.78192ZM11.0833 9.78192C11.369 9.78192 11.6124 9.68139 11.8137 9.48033C12.0147 9.27908 12.1153 9.03564 12.1153 8.75C12.1153 8.46436 12.0147 8.22092 11.8137 8.01967C11.6124 7.81861 11.369 7.71808 11.0833 7.71808C10.7977 7.71808 10.5542 7.81861 10.353 8.01967C10.1519 8.22092 10.0514 8.46436 10.0514 8.75C10.0514 9.03564 10.1519 9.27908 10.353 9.48033C10.5542 9.68139 10.7977 9.78192 11.0833 9.78192ZM15.75 9.78192C16.0356 9.78192 16.2791 9.68139 16.4803 9.48033C16.6814 9.27908 16.7819 9.03564 16.7819 8.75C16.7819 8.46436 16.6814 8.22092 16.4803 8.01967C16.2791 7.81861 16.0356 7.71808 15.75 7.71808C15.4644 7.71808 15.2209 7.81861 15.0197 8.01967C14.8186 8.22092 14.7181 8.46436 14.7181 8.75C14.7181 9.03564 14.8186 9.27908 15.0197 9.48033C15.2209 9.68139 15.4644 9.78192 15.75 9.78192Z" fill="white"/>
</svg>
